<?xml version="1.0" encoding="utf-8"?>
<!-- Generator: Adobe Illustrator 22.0.0, SVG Export Plug-In . SVG Version: 6.00 Build 0)  -->
<svg version="1.1" id="Слой_1" xmlns="http://www.w3.org/2000/svg" xmlns:xlink="http://www.w3.org/1999/xlink" x="0px" y="0px"
	 viewBox="0 0 8.2 8.2" style="enable-background:new 0 0 8.2 8.2;" xml:space="preserve">
<style type="text/css">
	.st0{fill:#FFFFFF;}
</style>
<title>close_dark</title>
<path class="st0" d="M4.8,4.1L8,0.9c0.2-0.2,0.2-0.5,0-0.7c0,0,0,0,0,0C7.8,0,7.5,0,7.3,0.1c0,0,0,0,0,0L4.1,3.4L0.8,0.2
	C0.7,0,0.3,0,0.1,0.2S0,0.7,0.1,0.9l3.2,3.2L0.1,7.3C0,7.5,0,7.8,0.1,8c0,0,0,0,0,0c0.2,0.2,0.5,0.2,0.7,0c0,0,0,0,0,0l3.2-3.2
	L7.3,8c0.1,0.1,0.2,0.1,0.4,0.1C7.8,8.2,7.9,8.1,8,8c0.2-0.2,0.2-0.5,0-0.7c0,0,0,0,0,0L4.8,4.1z"/>
</svg>
