<svg width="19" height="19" viewBox="0 0 19 19" fill="none" xmlns="http://www.w3.org/2000/svg">
<path d="M19 2.03571V16.9643C19 18.0882 18.0882 19 16.9643 19H13.3467V11.4848H15.9167L16.2857 8.61786H13.3467V6.78571C13.3467 5.95446 13.5757 5.3904 14.7674 5.3904H16.2857V2.82879C16.0228 2.79487 15.1237 2.71429 14.0719 2.71429C11.8835 2.71429 10.3821 4.05022 10.3821 6.5058V8.6221H7.80357V11.4891H10.3864V19H2.03571C0.91183 19 0 18.0882 0 16.9643V2.03571C0 0.91183 0.91183 0 2.03571 0H16.9643C18.0882 0 19 0.91183 19 2.03571Z" fill="white"/>
</svg>
