<svg id="Слой_1" data-name="Слой 1" xmlns="http://www.w3.org/2000/svg" viewBox="0 0 135 110"><defs><style>.cls-1{fill:#fff;}</style></defs><title>family</title><path class="cls-1" d="M67.49,31.47c.27-.62.52-1.14.75-1.68A25.23,25.23,0,0,1,83.11,15.54a24.12,24.12,0,0,1,10.75-1.42,25.31,25.31,0,0,1,22.89,22,33.71,33.71,0,0,1-.27,9.51c-.13.89-.8,1.18-1.57.7-.6-.38-1.19-.82-1.75-1.24l-7.92-6A4.64,4.64,0,0,0,101.75,38a4.14,4.14,0,0,0-1.65,7.43c1.62,1.28,3.29,2.51,4.94,3.75l9.23,6.94a1.57,1.57,0,0,1,.64.87,1,1,0,0,1-.19.94,1,1,0,0,1-1,.26,3.17,3.17,0,0,1-.95-.53c-5.42-4.11-10.87-8.19-16.3-12.29a4.11,4.11,0,0,0-3.61-.8A3.91,3.91,0,0,0,90,47.26a3.65,3.65,0,0,0,.82,3.86,9.82,9.82,0,0,0,1.39,1.26q8.55,6.38,17.08,12.77c.09.07.18.12.27.2a1.22,1.22,0,0,1,.37,1.58,1.11,1.11,0,0,1-1.48.24,5,5,0,0,1-.68-.45c-4.9-3.67-9.81-7.33-14.68-11a4.17,4.17,0,0,0-3.92-.93,4.09,4.09,0,0,0-1.87,6.65,28.07,28.07,0,0,0,3.85,3c3.68,2.81,7.4,5.59,11.1,8.37a1.05,1.05,0,0,1,.4,1.45,1,1,0,0,1-1.16.5,2,2,0,0,1-.66-.38l-6.36-4.72c-1.72-1.28-3.43-2.58-5.14-3.86a4.07,4.07,0,0,0-4.77.35,4,4,0,0,0-.4,5.76A18.05,18.05,0,0,0,87,74.27c1.82,1.37,3.65,2.71,5.47,4.07a1.29,1.29,0,0,1,0,2.27,124.75,124.75,0,0,1-19,11.73c-1.69.84-3.41,1.63-5.09,2.45a1.86,1.86,0,0,1-1.73,0c-3.17-1.47-6.3-3-9.36-4.68a125.06,125.06,0,0,1-14.68-9.44c-1-.77-1-1.64,0-2.41l6.7-5A12.53,12.53,0,0,0,50.72,72a3.83,3.83,0,0,0,.89-4.24,3.89,3.89,0,0,0-3.72-2.6,4.64,4.64,0,0,0-2.62.91c-3.72,2.82-7.46,5.59-11.2,8.37-.79.59-1.59.4-1.82-.39a1.1,1.1,0,0,1,.48-1.25c2.86-2.14,5.7-4.31,8.57-6.45,1.77-1.33,3.57-2.62,5.33-4a4.4,4.4,0,0,0,2.11-3.63A4,4,0,0,0,46.46,55a3.67,3.67,0,0,0-4.08.32L31.86,63.23,27,66.86a2,2,0,0,1-1,.47.88.88,0,0,1-.88-.3,1.09,1.09,0,0,1-.14-1.1,1.9,1.9,0,0,1,.7-.76L42.76,52.4A10,10,0,0,0,44,51.3a3.87,3.87,0,0,0,.74-4.59,4,4,0,0,0-4.26-2.24,4.49,4.49,0,0,0-2.12,1L22.23,57.56a3.83,3.83,0,0,1-.59.4,1.09,1.09,0,0,1-1.48-.16,1.23,1.23,0,0,1,.35-1.58c.85-.67,1.72-1.31,2.58-2L34.19,46c.4-.32.77-.68,1.14-1a4.1,4.1,0,0,0-.84-6.52,3.59,3.59,0,0,0-3.8.05A33.42,33.42,0,0,0,27,41.15c-2.19,1.66-4.34,3.37-6.59,5l-.36.25c-.81.47-1.45.17-1.58-.76s-.25-1.76-.33-2.64A27.11,27.11,0,0,1,18.86,33C21.64,23.22,28,17,37.72,14.73c9.28-2.18,17.32.58,24,7.33a26.29,26.29,0,0,1,5,7.84C67,30.39,67.21,30.89,67.49,31.47ZM20.22,43.61l.44-.31c1.58-1.2,3.14-2.42,4.73-3.6a40.94,40.94,0,0,1,4.05-3,6,6,0,0,1,6.53.18,5.44,5.44,0,0,1,2.6,5.36c0,.25,0,.37.29.31.5-.11,1,0,1.52-.15a5.25,5.25,0,0,1,3.78.71c3.38,1.84,4,6.74,1.86,9-.42.47-.4.49.23.67A5.53,5.53,0,0,1,49.66,55a6.35,6.35,0,0,1-.19,7.6c-.4.53-.37.5.23.76a6.44,6.44,0,0,1,2.55,1.46,6.37,6.37,0,0,1-.77,9.45c-1,.79-2,1.51-3,2.28l-3.31,2.54c-.29.22-.36.39,0,.65s.63.56,1,.81a115.22,115.22,0,0,0,20.79,12,1.51,1.51,0,0,0,1.31,0A116.41,116.41,0,0,0,87.82,81.36a16.11,16.11,0,0,0,1.93-1.47c.47-.45.48-.48-.06-.89-2.11-1.61-4.25-3.19-6.34-4.82A5.9,5.9,0,0,1,81,69a5.83,5.83,0,0,1,4.18-5.63c.72-.24.7-.26.25-.89a5.86,5.86,0,0,1-1.24-4.37,5.78,5.78,0,0,1,3.25-4.92A6.51,6.51,0,0,1,89,52.74c.4-.09.33-.22.13-.45A4.4,4.4,0,0,1,88.17,51a6.58,6.58,0,0,1,.44-5.72,6,6,0,0,1,5.51-2.95c.65.11,1.3.16,1.95.24.29,0,.36-.06.31-.34a3.94,3.94,0,0,1,0-1.37,6,6,0,0,1,6.16-5,6.58,6.58,0,0,1,4.16,1.63l7.58,5.83c.14.11.26.31.53.25a33.34,33.34,0,0,0,0-6.92,23.36,23.36,0,0,0-8.84-15.39A22.15,22.15,0,0,0,87.6,16.55,23.68,23.68,0,0,0,69.14,33.78c-.57,2.15-.89,4.34-1.29,6.52,0,.24,0,.52-.36.54s-.36-.3-.4-.56c-.37-2-.68-4-1.15-5.93a23.25,23.25,0,0,0-6.83-11.79A22.42,22.42,0,0,0,38.7,16.64a22.2,22.2,0,0,0-12.4,7.1C21.14,29.35,19.3,36,20.22,43.61Z"/></svg>