<svg width="135" height="110" viewBox="0 0 135 110" fill="none" xmlns="http://www.w3.org/2000/svg">
<path d="M67.485 31.4712C67.7585 30.8491 68.0101 30.327 68.2398 29.7938C71.2153 22.9068 76.1489 18.1192 83.1063 15.5421C86.5741 14.2535 90.1731 13.7759 93.8597 14.1202C100.008 14.709 105.324 17.1972 109.7 21.596C113.671 25.5949 115.935 30.5159 116.745 36.1366C117.204 39.3135 116.931 42.4793 116.482 45.6451C116.351 46.5449 115.684 46.8337 114.907 46.345C114.305 45.9673 113.725 45.5341 113.157 45.1119C110.509 43.1014 107.873 41.0908 105.237 39.0802C104.197 38.2804 103.092 37.8028 101.747 37.9583C100.194 38.1471 98.6183 39.7689 98.4323 41.3463C98.2354 43.0347 98.7933 44.3677 100.095 45.3897C101.725 46.6671 103.388 47.9001 105.04 49.1442C108.114 51.4547 111.188 53.7652 114.272 56.0757C114.579 56.3089 114.797 56.5644 114.907 56.9532C115.005 57.3087 114.962 57.6419 114.721 57.8863C114.458 58.164 114.097 58.264 113.715 58.1529C113.354 58.0418 113.058 57.8419 112.763 57.6197C107.337 53.5097 101.889 49.433 96.4632 45.3341C95.3584 44.501 94.166 44.2122 92.8533 44.5343C91.4202 44.8898 90.4357 45.8562 89.9872 47.2558C89.5386 48.6554 89.7356 49.9995 90.8076 51.1215C91.2342 51.5769 91.6937 51.999 92.1969 52.3767C97.8963 56.6311 103.585 60.8966 109.284 65.151C109.372 65.2177 109.459 65.2732 109.547 65.351C110.083 65.7953 110.225 66.4062 109.919 66.9283C109.667 67.3504 109.043 67.4726 108.442 67.1727C108.201 67.0505 107.982 66.8839 107.764 66.7173C102.863 63.0516 97.951 59.3859 93.083 55.6869C91.8687 54.7649 90.5888 54.3206 89.1558 54.7649C86.2022 55.6758 85.3051 59.3193 87.2851 61.4076C88.4228 62.6073 89.834 63.4404 91.1358 64.4179C94.8223 67.2282 98.5417 70.0053 102.239 72.7934C102.797 73.2155 102.917 73.6821 102.644 74.2375C102.436 74.6596 101.955 74.8595 101.484 74.7373C101.233 74.6707 101.025 74.5152 100.817 74.3597C98.6948 72.7823 96.5836 71.2161 94.4613 69.6387C92.7439 68.3613 91.0264 67.0616 89.3199 65.7842C88.04 64.8178 85.7208 65.0177 84.5503 66.1285C83.6205 67.0061 83.0516 67.9947 83.1173 69.3388C83.172 70.3385 83.4892 71.1605 84.1456 71.8937C84.9879 72.8379 86.0271 73.5266 87.0226 74.2708C88.8385 75.6371 90.6654 76.9812 92.4923 78.3364C93.4002 79.014 93.3893 79.936 92.4813 80.6136C86.4647 85.0901 80.1308 89.0224 73.436 92.3437C71.7513 93.1769 70.0339 93.9655 68.3492 94.7875C67.7585 95.0763 67.2115 95.0652 66.6208 94.7875C63.4484 93.3213 60.3198 91.7883 57.2568 90.111C52.1481 87.3118 47.2582 84.1571 42.5762 80.6691C41.5479 79.9026 41.537 79.0251 42.5653 78.2586C44.7969 76.5924 47.0285 74.9262 49.2711 73.2711C49.7852 72.8823 50.2556 72.4602 50.7151 71.9936C51.9184 70.7717 52.17 69.2944 51.6121 67.7503C51.1307 66.4174 49.6977 65.0399 47.8927 65.151C46.9082 65.2177 46.0768 65.4509 45.2673 66.0619C41.5479 68.8834 37.8067 71.6493 34.0654 74.4263C33.2778 75.0151 32.4792 74.8262 32.2495 74.0375C32.0854 73.5043 32.3151 73.1156 32.7308 72.7934C35.586 70.6496 38.4302 68.4835 41.2963 66.3396C43.0685 65.0066 44.8735 63.7181 46.6347 62.374C47.8161 61.4742 48.7569 60.3856 48.735 58.7416C48.7241 57.031 47.9037 55.7758 46.4597 55.0315C45.0923 54.3317 43.6701 54.3872 42.3793 55.3536C38.8678 57.9752 35.3672 60.5967 31.8557 63.2293C30.2367 64.4401 28.6286 65.6509 27.0205 66.8617C26.7033 67.095 26.386 67.2949 25.9922 67.3282C25.6531 67.3615 25.3249 67.3282 25.1061 67.0283C24.8655 66.6951 24.8108 66.3285 24.9749 65.9286C25.1171 65.5842 25.3906 65.3843 25.675 65.1732C31.3744 60.9188 37.0628 56.6533 42.7622 52.3989C43.1998 52.0656 43.6154 51.6991 43.9983 51.2992C45.2235 50.0329 45.5845 48.1889 44.7422 46.7115C43.7577 44.9787 42.3902 44.2344 40.4759 44.4677C39.6664 44.5676 39.01 44.9675 38.3646 45.4452C32.9824 49.4886 27.6112 53.5208 22.2291 57.5642C22.0431 57.7086 21.8462 57.853 21.6384 57.9641C21.0477 58.2862 20.446 58.2195 20.1616 57.7974C19.8553 57.342 19.9975 56.62 20.5116 56.2201C21.3649 55.5536 22.2291 54.9093 23.0933 54.2539C26.7908 51.488 30.4883 48.7221 34.1858 45.9451C34.5905 45.634 34.9625 45.2675 35.3344 44.9231C37.1941 43.2347 37.019 39.8356 34.4921 38.4026C33.2559 37.6917 31.9432 37.7139 30.6852 38.4471C29.3725 39.2135 28.2129 40.2244 27.0096 41.1463C24.8217 42.8126 22.6667 44.5232 20.4241 46.1006C20.3038 46.1894 20.1835 46.2672 20.0631 46.345C19.2536 46.8226 18.6082 46.5227 18.4769 45.5896C18.3457 44.7121 18.2253 43.8345 18.1487 42.9459C17.8643 39.6023 17.93 36.2921 18.8598 33.0374C21.6384 23.2178 27.9832 17.0195 37.7192 14.7312C46.9957 12.554 55.0361 15.3088 61.7638 22.0626C63.9844 24.2953 65.4503 27.0501 66.7521 29.9049C66.9818 30.3937 67.2115 30.8935 67.485 31.4712ZM20.2163 43.6123C20.4022 43.4791 20.5335 43.3902 20.6648 43.3013C22.24 42.1016 23.8044 40.8797 25.3906 39.7023C26.747 38.7025 27.9613 37.514 29.4381 36.6809C31.6369 35.4368 33.8466 35.5034 35.9689 36.8586C37.8942 38.0916 38.7584 39.9133 38.5724 42.2238C38.5505 42.4682 38.5943 42.5904 38.8568 42.5349C39.3601 42.4238 39.8742 42.4904 40.3774 42.3793C41.7339 42.0794 42.97 42.4349 44.1624 43.0903C47.5427 44.9342 48.1115 49.8329 46.0221 52.1323C45.5955 52.5988 45.6173 52.621 46.2518 52.7988C47.6302 53.1653 48.8444 53.7763 49.6649 55.0204C51.2839 57.4975 51.2183 60.2301 49.468 62.6184C49.0742 63.1516 49.096 63.1182 49.6977 63.3848C50.6057 63.7736 51.5683 64.0624 52.2466 64.84C55.0361 68.0391 54.2594 72.0936 51.4808 74.293C50.4853 75.0817 49.457 75.8037 48.4506 76.5702C47.3457 77.4144 46.2409 78.2697 45.136 79.114C44.8516 79.325 44.775 79.5027 45.0923 79.7582C45.4204 80.0248 45.7158 80.3247 46.0549 80.5691C52.5747 85.2901 59.5103 89.2779 66.8396 92.5437C67.2881 92.7436 67.7038 92.7325 68.1523 92.5326C75.0659 89.4556 81.6186 85.7122 87.8212 81.3578C88.4775 80.8913 89.1558 80.458 89.7465 79.8915C90.2169 79.4361 90.2278 79.4139 89.6918 79.0029C87.5805 77.3922 85.4364 75.8148 83.347 74.1819C81.7061 72.8934 80.8747 71.0828 80.995 69.0389C81.1482 66.3063 82.5047 64.2957 85.1848 63.407C85.8959 63.1738 85.8849 63.1516 85.4255 62.5184C84.4737 61.2187 83.9705 59.7747 84.1893 58.1529C84.4847 55.9979 85.3489 54.1873 87.4383 53.232C87.9196 53.0098 88.4228 52.8432 88.9479 52.7432C89.3527 52.6544 89.2761 52.5211 89.0792 52.2878C88.7401 51.8768 88.3463 51.4991 88.1712 50.977C87.493 49.0109 87.5367 47.0892 88.6088 45.2564C89.7355 43.3235 92.2188 42.0017 94.1222 42.3127C94.7676 42.4238 95.424 42.4682 96.0694 42.546C96.3648 42.5793 96.4304 42.4904 96.3757 42.2127C96.2991 41.7573 96.2773 41.2907 96.3648 40.8353C97.0649 37.3696 99.7231 35.87 102.524 35.8367C104.088 35.8144 105.444 36.5142 106.681 37.4695C109.208 39.4135 111.734 41.3574 114.261 43.3013C114.404 43.4124 114.524 43.6123 114.787 43.5457C114.951 41.2352 115.104 38.9247 114.776 36.6253C113.89 30.2826 110.827 25.1839 105.937 21.2406C100.544 16.8973 94.3957 15.3977 87.6024 16.5529C78.8619 18.0414 71.4888 24.9507 69.1368 33.7816C68.568 35.9255 68.2508 38.1249 67.846 40.3021C67.8022 40.5354 67.8022 40.8242 67.485 40.8353C67.124 40.8464 67.1349 40.5354 67.0912 40.2799C66.7193 38.3027 66.413 36.3032 65.9426 34.3482C64.8268 29.7383 62.5623 25.7838 59.1055 22.5624C53.2749 17.1417 46.4487 15.1755 38.7037 16.6418C33.7919 17.5638 29.7116 20.052 26.2985 23.7399C21.1352 29.3495 19.2974 36.0033 20.2163 43.6123Z" fill="white"/>
</svg>
