<svg width="19" height="19" viewBox="0 0 19 19" fill="none" xmlns="http://www.w3.org/2000/svg">
<path d="M16.9643 0H2.03571C0.911406 0 0 0.911406 0 2.03571V16.9643C0 18.0886 0.911406 19 2.03571 19H16.9643C18.0886 19 19 18.0886 19 16.9643V2.03571C19 0.911406 18.0886 0 16.9643 0ZM7.55407 9.75887C3.70793 6.96753 3.74711 6.96049 2.71429 6.15664V5.08929C2.71429 4.52713 3.16999 4.07143 3.73214 4.07143H15.2679C15.83 4.07143 16.2857 4.52713 16.2857 5.08929V6.15664C15.2521 6.96112 15.2919 6.9677 11.4459 9.75892C11.0006 10.0836 10.1146 10.8667 9.5 10.8571C8.88492 10.8663 8.00006 10.0841 7.55407 9.75887ZM16.2857 7.87885V13.9107C16.2857 14.4729 15.83 14.9286 15.2679 14.9286H3.73214C3.16999 14.9286 2.71429 14.4729 2.71429 13.9107V7.87885C3.30625 8.33663 4.12779 8.94913 6.75615 10.8567C7.35677 11.2952 8.3667 12.22 9.49987 12.2142C10.6402 12.2199 11.6644 11.2795 12.2447 10.856C14.8724 8.94904 15.6937 8.33659 16.2857 7.87885Z" fill="#881E34"/>
</svg>
