<svg width="19" height="19" viewBox="0 0 19 19" fill="none" xmlns="http://www.w3.org/2000/svg">
<path fill-rule="evenodd" clip-rule="evenodd" d="M2 0C0.895431 0 0 0.895431 0 2V17C0 18.1046 0.895431 19 2 19H17C18.1046 19 19 18.1046 19 17V2C19 0.895431 18.1046 0 17 0H2ZM6.16665 4.34752C5.60815 4.79433 5.16134 5.46454 5.04964 6.24645C5.04964 6.28369 5.03723 6.32092 5.02482 6.35816C5 6.43262 4.97518 6.50709 5.04964 6.58156C5.04964 7.58688 5.27305 8.4805 5.49645 9.37411C6.61345 11.6082 8.06555 13.3954 10.2996 14.5124C10.8581 14.8475 11.5283 15.1826 12.3102 15.0709C13.2038 14.8475 13.9857 14.6241 14.3208 13.6188C14.4325 13.172 14.4325 13.0603 13.9857 12.7252C13.7623 12.5576 13.5109 12.3622 13.2596 12.1667C13.0083 11.9712 12.757 11.7757 12.5336 11.6082C12.1985 11.3848 12.0868 11.3848 11.7517 11.6082C11.64 11.7199 11.5003 11.8316 11.3607 11.9433C11.2211 12.055 11.0815 12.1667 10.9698 12.2784C10.6347 12.5018 10.523 12.5018 10.1879 12.2784C8.95915 11.3848 7.95385 10.156 7.39535 8.7039C7.17195 7.92199 7.17195 7.81028 7.84215 7.47518C8.06555 7.25177 8.28895 7.14007 8.51235 7.02837C8.73575 6.80496 8.84745 6.69326 8.62405 6.24645C8.55502 6.17742 8.52865 6.10838 8.49221 6.01298C8.46969 5.95401 8.44332 5.88498 8.40065 5.79965C8.27381 5.54596 8.18298 5.25627 8.08727 4.95102C8.0144 4.71863 7.93871 4.47722 7.84215 4.23582C7.84215 4.12411 7.73045 4.01241 7.61875 4.01241C7.52461 4.01241 7.43047 4.00924 7.3374 4.0061C6.87831 3.99062 6.44526 3.97602 6.16665 4.34752Z" fill="#881E34"/>
</svg>
