<svg width="19" height="19" viewBox="0 0 19 19" fill="none" xmlns="http://www.w3.org/2000/svg">
<path fill-rule="evenodd" clip-rule="evenodd" d="M2 0C0.895447 0 0 0.895508 0 2V17C0 18.1045 0.895447 19 2 19H17C18.1046 19 19 18.1045 19 17V2C19 0.895508 18.1046 0 17 0H2ZM6.16663 4.34766C5.60815 4.79443 5.16132 5.46436 5.04962 6.24658C5.04962 6.3584 4.93793 6.46973 5.04962 6.58154C5.04962 7.58691 5.27307 8.48047 5.49646 9.37402C6.61346 11.6084 8.06555 13.3955 10.2996 14.5122C10.858 14.8477 11.5283 15.1826 12.3102 15.0708C13.2037 14.8477 13.9857 14.624 14.3207 13.6187C14.4324 13.1719 14.4324 13.0601 13.9857 12.7251C13.7623 12.5576 13.511 12.3623 13.2596 12.167C13.0083 11.9717 12.757 11.7759 12.5336 11.6084C12.1985 11.3848 12.0867 11.3848 11.7516 11.6084C11.5283 11.8315 11.1932 12.0552 10.9697 12.2783C10.6346 12.502 10.5229 12.502 10.1879 12.2783C8.95917 11.3848 7.95386 10.1562 7.39532 8.7041C7.17194 7.92188 7.17194 7.81006 7.84216 7.4751C8.06555 7.25195 8.28894 7.14014 8.51233 7.02832C8.73578 6.80518 8.84747 6.69336 8.62402 6.24658C8.51233 6.13477 8.51233 6.02295 8.40063 5.7998C8.2738 5.5459 8.18298 5.25635 8.08728 4.95068C8.0144 4.71826 7.93872 4.47705 7.84216 4.23584C7.84216 4.17725 7.81171 4.11865 7.76672 4.07617C7.72559 4.0376 7.67218 4.01221 7.61877 4.01221C7.06024 4.01221 6.50177 3.90088 6.16663 4.34766Z" fill="white"/>
</svg>
