<svg width="19" height="19" viewBox="0 0 19 19" fill="none" xmlns="http://www.w3.org/2000/svg">
<path fill-rule="evenodd" clip-rule="evenodd" d="M2 0C0.895431 0 0 0.895431 0 2V17C0 18.1046 0.895431 19 2 19H17C18.1046 19 19 18.1046 19 17V2C19 0.895431 18.1046 0 17 0H2ZM16.5951 4.9593C17.1132 4.9593 17.2209 5.22037 17.1132 5.57509C16.8978 6.54845 14.8052 9.42028 14.8023 9.42312C14.6218 9.70689 14.549 9.84878 14.8023 10.1666C14.8213 10.1928 14.9179 10.289 15.0639 10.4345C15.6782 11.0468 17.1671 12.5305 17.4305 13.3307C17.5731 13.8018 17.3257 14.0402 16.8367 14.0402H15.1224C14.6646 14.0402 14.4335 13.7897 13.9333 13.2474C13.7213 13.0175 13.4608 12.7351 13.1141 12.3971C12.0955 11.4408 11.6589 11.3159 11.4057 11.3159C10.9411 11.3159 10.9423 11.4448 10.9532 12.6437C10.9552 12.857 10.9574 13.1041 10.9574 13.3903C10.9574 13.8018 10.8235 14.0402 9.73209 14.0402C7.91592 14.0402 5.91929 12.9647 4.50185 10.9811C2.37425 8.07517 1.79214 5.8759 1.79214 5.4332C1.79214 5.18348 1.8911 4.9593 2.38007 4.9593H4.09438C4.53387 4.9593 4.69977 5.14659 4.86858 5.60915C5.70682 7.99288 7.12134 10.0758 7.70345 10.0758C7.92174 10.0758 8.0207 9.97648 8.0207 9.43731V6.97412C7.9811 6.27224 7.73008 5.96855 7.54423 5.74371C7.42951 5.60493 7.33963 5.49619 7.33963 5.34239C7.33963 5.15794 7.50262 4.9593 7.77621 4.9593H10.4714C10.8323 4.9593 10.9545 5.14943 10.9545 5.57509V8.88678C10.9545 9.2415 11.1204 9.36636 11.2281 9.36636C11.4464 9.36636 11.6298 9.2415 12.0285 8.85272C13.2626 7.50762 14.1357 5.4332 14.1357 5.4332C14.2434 5.18348 14.4443 4.9593 14.8808 4.9593H16.5951Z" fill="#881E34"/>
</svg>
